<svg width="12" height="10" viewBox="0 0 12 10" fill="none" xmlns="http://www.w3.org/2000/svg">
<path fill-rule="evenodd" clip-rule="evenodd" d="M1.23895 0.254407C1.39523 0.0981811 1.60715 0.0104182 1.82812 0.0104182C2.04909 0.0104182 2.26101 0.0981811 2.41729 0.254407L5.99479 3.83191L9.57229 0.254407C9.64916 0.174815 9.74111 0.11133 9.84278 0.0676557C9.94445 0.0239815 10.0538 0.000992978 10.1645 3.14642e-05C10.2751 -0.000930049 10.3848 0.0201545 10.4872 0.0620553C10.5897 0.103956 10.6827 0.165834 10.7609 0.244078C10.8392 0.322321 10.9011 0.415365 10.943 0.517778C10.9849 0.620192 11.006 0.729925 11.005 0.840575C11.004 0.951224 10.981 1.06057 10.9374 1.16224C10.8937 1.26391 10.8302 1.35587 10.7506 1.43274L7.17312 5.01024L10.7506 8.58774C10.9024 8.74491 10.9864 8.95541 10.9845 9.17391C10.9826 9.3924 10.895 9.60142 10.7405 9.75592C10.586 9.91043 10.377 9.99807 10.1585 9.99997C9.93996 10.0019 9.72946 9.91787 9.57229 9.76607L5.99479 6.18857L2.41729 9.76607C2.26012 9.91787 2.04962 10.0019 1.83112 9.99997C1.61262 9.99807 1.40361 9.91043 1.2491 9.75592C1.0946 9.60142 1.00696 9.3924 1.00506 9.17391C1.00316 8.95541 1.08716 8.74491 1.23895 8.58774L4.81645 5.01024L1.23895 1.43274C1.08273 1.27647 0.994965 1.06454 0.994965 0.843574C0.994965 0.622603 1.08273 0.41068 1.23895 0.254407Z" fill="black"/>
</svg>
