<svg width="14" height="13" viewBox="0 0 14 13" fill="none" xmlns="http://www.w3.org/2000/svg">
<path d="M3.62641 5.3408C3.49876 5.71392 3.43388 6.10564 3.43441 6.5C3.43441 6.9404 3.51361 7.3622 3.66001 7.7516C3.84247 8.2383 4.12908 8.67925 4.49979 9.0436C4.87049 9.40795 5.31633 9.6869 5.80612 9.86092C6.2959 10.0349 6.81779 10.0998 7.33528 10.0511C7.85277 10.0023 8.35335 9.84106 8.802 9.57859H8.8026C9.50942 9.16421 10.0525 8.51966 10.341 7.7528H7.1328V5.3792H12.8958C13.0449 6.16429 13.0359 6.97122 12.8694 7.7528C12.5809 9.10393 11.8349 10.3141 10.7574 11.1788C9.69312 12.0358 8.36724 12.5021 7.0008 12.5C5.97058 12.5006 4.95758 12.2358 4.05939 11.7312C3.16119 11.2267 2.40808 10.4993 1.87261 9.61914C1.33715 8.73901 1.03737 7.73581 1.00216 6.7062C0.966956 5.67658 1.19751 4.65525 1.67161 3.7406C2.17739 2.76375 2.94204 1.94478 3.88193 1.37324C4.82183 0.801706 5.90078 0.499614 7.0008 0.5C8.4564 0.5 9.7914 1.0184 10.8306 1.8812L8.8866 3.4724C8.43121 3.18898 7.91779 3.01186 7.38452 2.9542C6.85124 2.89654 6.31183 2.95983 5.80639 3.13936C5.30094 3.3189 4.84247 3.61005 4.46505 3.99118C4.08763 4.37232 3.80098 4.83362 3.62641 5.3408Z" fill="white"/>
</svg>
