<svg width="21" height="20" viewBox="0 0 21 20" fill="none" xmlns="http://www.w3.org/2000/svg">
<path d="M10.3333 3C10.3333 2.46957 10.544 1.96086 10.9191 1.58579C11.2942 1.21071 11.8029 1 12.3333 1C12.8637 1 13.3725 1.21071 13.7475 1.58579C14.1226 1.96086 14.3333 2.46957 14.3333 3V4C14.3333 4.26522 14.4387 4.51957 14.6262 4.70711C14.8137 4.89464 15.0681 5 15.3333 5H18.3333C18.5985 5 18.8529 5.10536 19.0404 5.29289C19.228 5.48043 19.3333 5.73478 19.3333 6V9C19.3333 9.26522 19.228 9.51957 19.0404 9.70711C18.8529 9.89464 18.5985 10 18.3333 10H17.3333C16.8029 10 16.2942 10.2107 15.9191 10.5858C15.544 10.9609 15.3333 11.4696 15.3333 12C15.3333 12.5304 15.544 13.0391 15.9191 13.4142C16.2942 13.7893 16.8029 14 17.3333 14H18.3333C18.5985 14 18.8529 14.1054 19.0404 14.2929C19.228 14.4804 19.3333 14.7348 19.3333 15V18C19.3333 18.2652 19.228 18.5196 19.0404 18.7071C18.8529 18.8946 18.5985 19 18.3333 19H15.3333C15.0681 19 14.8137 18.8946 14.6262 18.7071C14.4387 18.5196 14.3333 18.2652 14.3333 18V17C14.3333 16.4696 14.1226 15.9609 13.7475 15.5858C13.3725 15.2107 12.8637 15 12.3333 15C11.8029 15 11.2942 15.2107 10.9191 15.5858C10.544 15.9609 10.3333 16.4696 10.3333 17V18C10.3333 18.2652 10.228 18.5196 10.0404 18.7071C9.85288 18.8946 9.59853 19 9.33331 19H6.33331C6.0681 19 5.81374 18.8946 5.62621 18.7071C5.43867 18.5196 5.33331 18.2652 5.33331 18V15C5.33331 14.7348 5.22796 14.4804 5.04042 14.2929C4.85288 14.1054 4.59853 14 4.33331 14H3.33331C2.80288 14 2.29417 13.7893 1.9191 13.4142C1.54403 13.0391 1.33331 12.5304 1.33331 12C1.33331 11.4696 1.54403 10.9609 1.9191 10.5858C2.29417 10.2107 2.80288 10 3.33331 10H4.33331C4.59853 10 4.85288 9.89464 5.04042 9.70711C5.22796 9.51957 5.33331 9.26522 5.33331 9V6C5.33331 5.73478 5.43867 5.48043 5.62621 5.29289C5.81374 5.10536 6.0681 5 6.33331 5H9.33331C9.59853 5 9.85288 4.89464 10.0404 4.70711C10.228 4.51957 10.3333 4.26522 10.3333 4V3Z" stroke="#9269F7" stroke-width="2" stroke-linecap="round" stroke-linejoin="round"/>
</svg>
