<svg width="14" height="15" viewBox="0 0 14 15" fill="none" xmlns="http://www.w3.org/2000/svg">
<path fill-rule="evenodd" clip-rule="evenodd" d="M14 7.5C14 9.35652 13.2625 11.137 11.9497 12.4497C10.637 13.7625 8.85652 14.5 7 14.5C5.14348 14.5 3.36301 13.7625 2.05025 12.4497C0.737498 11.137 0 9.35652 0 7.5C0 5.64348 0.737498 3.86301 2.05025 2.55025C3.36301 1.2375 5.14348 0.5 7 0.5C8.85652 0.5 10.637 1.2375 11.9497 2.55025C13.2625 3.86301 14 5.64348 14 7.5ZM7.875 4C7.875 4.23206 7.78281 4.45462 7.61872 4.61872C7.45462 4.78281 7.23206 4.875 7 4.875C6.76794 4.875 6.54538 4.78281 6.38128 4.61872C6.21719 4.45462 6.125 4.23206 6.125 4C6.125 3.76794 6.21719 3.54538 6.38128 3.38128C6.54538 3.21719 6.76794 3.125 7 3.125C7.23206 3.125 7.45462 3.21719 7.61872 3.38128C7.78281 3.54538 7.875 3.76794 7.875 4ZM6.125 6.625C5.89294 6.625 5.67038 6.71719 5.50628 6.88128C5.34219 7.04538 5.25 7.26794 5.25 7.5C5.25 7.73206 5.34219 7.95462 5.50628 8.11872C5.67038 8.28281 5.89294 8.375 6.125 8.375V11C6.125 11.2321 6.21719 11.4546 6.38128 11.6187C6.54538 11.7828 6.76794 11.875 7 11.875H7.875C8.10706 11.875 8.32962 11.7828 8.49372 11.6187C8.65781 11.4546 8.75 11.2321 8.75 11C8.75 10.7679 8.65781 10.5454 8.49372 10.3813C8.32962 10.2172 8.10706 10.125 7.875 10.125V7.5C7.875 7.26794 7.78281 7.04538 7.61872 6.88128C7.45462 6.71719 7.23206 6.625 7 6.625H6.125Z" fill="#9299A5"/>
</svg>
