<svg width="16" height="16" viewBox="0 0 16 16" fill="none" xmlns="http://www.w3.org/2000/svg">
<path d="M10 4.66672C10.3536 4.66672 10.6928 4.80719 10.9428 5.05724C11.1929 5.30729 11.3333 5.64643 11.3333 6.00005M14 6.00005C14.0002 6.62483 13.854 7.24097 13.5732 7.79908C13.2924 8.3572 12.8847 8.84177 12.3829 9.21397C11.8811 9.58617 11.2991 9.83564 10.6835 9.94239C10.0679 10.0491 9.43584 10.0102 8.838 9.82872L7.33333 11.3334H6V12.6667H4.66667V14.0001H2.66667C2.48986 14.0001 2.32029 13.9298 2.19526 13.8048C2.07024 13.6798 2 13.5102 2 13.3334V11.6094C2.00004 11.4326 2.0703 11.263 2.19533 11.1381L6.17133 7.16205C6.00497 6.61206 5.95904 6.03268 6.0367 5.46335C6.11435 4.89402 6.31375 4.3481 6.62133 3.86275C6.92891 3.3774 7.33744 2.96401 7.81913 2.65073C8.30082 2.33745 8.84434 2.13162 9.41272 2.04725C9.9811 1.96289 10.561 2.00197 11.1129 2.16184C11.6648 2.32171 12.1758 2.59861 12.6111 2.97369C13.0464 3.34878 13.3958 3.81324 13.6354 4.33548C13.8751 4.85771 13.9994 5.42545 14 6.00005V6.00005Z" stroke="#9269F7" stroke-width="2" stroke-linecap="round" stroke-linejoin="round"/>
</svg>
