<svg width="40" height="40" viewBox="0 0 40 40" fill="none" xmlns="http://www.w3.org/2000/svg">
<rect width="40" height="40" fill="black"/>
<path d="M26.603 21.1468C25.5184 20.2756 23.9715 20.2756 22.8957 21.1468L21.6422 22.1603C21.171 22.5337 19.2596 24.4807 19.2596 24.4807C20.0242 24.4807 20.2909 24.4541 20.7621 24.9786L23.7137 28.2858C24.3627 29.0148 25.2962 29.4327 26.2741 29.4327H31.706C32.6485 29.4327 33.1462 28.3125 32.524 27.6101L27.581 22.0714C27.2787 21.7425 26.9498 21.4313 26.603 21.1468Z" fill="#9269F7"/>
<path d="M21.6422 17.8485L21.6688 17.8663L21.6777 17.8752L22.8957 18.8531C23.9803 19.7244 25.5183 19.7244 26.603 18.8531C26.9497 18.5686 27.2787 18.2664 27.572 17.9285L32.515 12.3898C33.1462 11.6875 32.6394 10.5673 31.6972 10.5673H26.2652C25.2872 10.5673 24.3537 10.9852 23.7047 11.7142L20.762 15.0125C20.2908 15.5459 20.0152 15.5193 19.2507 15.5193C19.2596 15.5193 21.171 17.4662 21.6422 17.8485Z" fill="#9269F7"/>
<path d="M21.6421 22.1603C21.171 22.5337 20.5753 22.7649 19.9174 22.7649C18.3972 22.7649 17.1614 21.5291 17.1614 20.0089C17.1614 18.4886 18.3972 17.2529 19.9174 17.2529C20.5664 17.2529 21.1621 17.4751 21.6421 17.8574L21.6688 17.8752L21.6777 17.8841L22.0511 18.1864L16.2902 11.7142C15.6412 10.9852 14.7077 10.5673 13.7298 10.5673H8.29774C7.35538 10.5673 6.85752 11.6875 7.47982 12.3898L13.5075 19.1465C13.9431 19.6355 13.9431 20.3645 13.5075 20.8535L7.47982 27.6101C6.84863 28.3124 7.35538 29.4326 8.29774 29.4326H13.7298C14.7077 29.4326 15.6412 29.0148 16.2902 28.2858L22.0511 21.8225L21.6421 22.1603Z" fill="white"/>
</svg>
