<svg width="20" height="20" viewBox="0 0 20 20" fill="none" xmlns="http://www.w3.org/2000/svg">
<path fill-rule="evenodd" clip-rule="evenodd" d="M20 10C20 12.5461 18.9886 14.9879 17.1882 16.7882C15.3879 18.5886 12.9461 19.6 10.4 19.6C7.85391 19.6 5.41211 18.5886 3.61176 16.7882C1.81141 14.9879 0.799988 12.5461 0.799988 10C0.799988 7.45395 1.81141 5.01215 3.61176 3.2118C5.41211 1.41145 7.85391 0.400024 10.4 0.400024C12.9461 0.400024 15.3879 1.41145 17.1882 3.2118C18.9886 5.01215 20 7.45395 20 10ZM12.8 6.40002C12.8 7.03654 12.5471 7.64699 12.097 8.09708C11.647 8.54717 11.0365 8.80002 10.4 8.80002C9.76347 8.80002 9.15302 8.54717 8.70293 8.09708C8.25284 7.64699 7.99999 7.03654 7.99999 6.40002C7.99999 5.7635 8.25284 5.15306 8.70293 4.70297C9.15302 4.25288 9.76347 4.00002 10.4 4.00002C11.0365 4.00002 11.647 4.25288 12.097 4.70297C12.5471 5.15306 12.8 5.7635 12.8 6.40002ZM10.4 11.2C9.25111 11.1998 8.12632 11.5294 7.15929 12.1497C6.19225 12.77 5.42364 13.6549 4.94479 14.6992C5.62 15.4847 6.45711 16.1149 7.39872 16.5466C8.34033 16.9783 9.36415 17.2012 10.4 17.2C11.4358 17.2012 12.4596 16.9783 13.4013 16.5466C14.3429 16.1149 15.18 15.4847 15.8552 14.6992C15.3763 13.6549 14.6077 12.77 13.6407 12.1497C12.6737 11.5294 11.5489 11.1998 10.4 11.2Z" fill="black"/>
</svg>
