<svg width="16" height="16" viewBox="0 0 16 16" fill="none" xmlns="http://www.w3.org/2000/svg">
<path d="M2.66667 4.00002C2.66667 3.6464 2.80715 3.30726 3.0572 3.05721C3.30724 2.80716 3.64638 2.66669 4.00001 2.66669H5.33334C5.68696 2.66669 6.0261 2.80716 6.27615 3.05721C6.5262 3.30726 6.66667 3.6464 6.66667 4.00002V5.33335C6.66667 5.68698 6.5262 6.02611 6.27615 6.27616C6.0261 6.52621 5.68696 6.66669 5.33334 6.66669H4.00001C3.64638 6.66669 3.30724 6.52621 3.0572 6.27616C2.80715 6.02611 2.66667 5.68698 2.66667 5.33335V4.00002ZM9.33334 4.00002C9.33334 3.6464 9.47381 3.30726 9.72386 3.05721C9.97391 2.80716 10.313 2.66669 10.6667 2.66669H12C12.3536 2.66669 12.6928 2.80716 12.9428 3.05721C13.1929 3.30726 13.3333 3.6464 13.3333 4.00002V5.33335C13.3333 5.68698 13.1929 6.02611 12.9428 6.27616C12.6928 6.52621 12.3536 6.66669 12 6.66669H10.6667C10.313 6.66669 9.97391 6.52621 9.72386 6.27616C9.47381 6.02611 9.33334 5.68698 9.33334 5.33335V4.00002ZM2.66667 10.6667C2.66667 10.3131 2.80715 9.97393 3.0572 9.72388C3.30724 9.47383 3.64638 9.33335 4.00001 9.33335H5.33334C5.68696 9.33335 6.0261 9.47383 6.27615 9.72388C6.5262 9.97393 6.66667 10.3131 6.66667 10.6667V12C6.66667 12.3536 6.5262 12.6928 6.27615 12.9428C6.0261 13.1929 5.68696 13.3334 5.33334 13.3334H4.00001C3.64638 13.3334 3.30724 13.1929 3.0572 12.9428C2.80715 12.6928 2.66667 12.3536 2.66667 12V10.6667ZM9.33334 10.6667C9.33334 10.3131 9.47381 9.97393 9.72386 9.72388C9.97391 9.47383 10.313 9.33335 10.6667 9.33335H12C12.3536 9.33335 12.6928 9.47383 12.9428 9.72388C13.1929 9.97393 13.3333 10.3131 13.3333 10.6667V12C13.3333 12.3536 13.1929 12.6928 12.9428 12.9428C12.6928 13.1929 12.3536 13.3334 12 13.3334H10.6667C10.313 13.3334 9.97391 13.1929 9.72386 12.9428C9.47381 12.6928 9.33334 12.3536 9.33334 12V10.6667Z" stroke="black" stroke-linecap="round" stroke-linejoin="round"/>
</svg>
