<svg width="14" height="17" viewBox="0 0 14 17" fill="none" xmlns="http://www.w3.org/2000/svg">
<path d="M4.49999 2.66667H2.83332C2.3913 2.66667 1.96737 2.84226 1.65481 3.15482C1.34225 3.46738 1.16666 3.89131 1.16666 4.33333V14.3333C1.16666 14.7754 1.34225 15.1993 1.65481 15.5118C1.96737 15.8244 2.3913 16 2.83332 16H11.1667C11.6087 16 12.0326 15.8244 12.3452 15.5118C12.6577 15.1993 12.8333 14.7754 12.8333 14.3333V4.33333C12.8333 3.89131 12.6577 3.46738 12.3452 3.15482C12.0326 2.84226 11.6087 2.66667 11.1667 2.66667H9.49999M4.49999 2.66667C4.49999 3.10869 4.67559 3.53262 4.98815 3.84518C5.30071 4.15774 5.72463 4.33333 6.16666 4.33333H7.83332C8.27535 4.33333 8.69927 4.15774 9.01183 3.84518C9.3244 3.53262 9.49999 3.10869 9.49999 2.66667M4.49999 2.66667C4.49999 2.22464 4.67559 1.80072 4.98815 1.48816C5.30071 1.17559 5.72463 1 6.16666 1H7.83332C8.27535 1 8.69927 1.17559 9.01183 1.48816C9.3244 1.80072 9.49999 2.22464 9.49999 2.66667M4.49999 10.1667L6.16666 11.8333L9.49999 8.5" stroke="#9269F7" stroke-width="2" stroke-linecap="round" stroke-linejoin="round"/>
</svg>
