<svg width="10" height="13" viewBox="0 0 10 13" fill="none" xmlns="http://www.w3.org/2000/svg">
<path fill-rule="evenodd" clip-rule="evenodd" d="M0.5 2C0.5 1.60218 0.658035 1.22064 0.93934 0.93934C1.22064 0.658035 1.60218 0.5 2 0.5H5.4395C5.83729 0.500085 6.21876 0.658176 6.5 0.9395L9.0605 3.5C9.34182 3.78124 9.49992 4.16271 9.5 4.5605V11C9.5 11.3978 9.34196 11.7794 9.06066 12.0607C8.77936 12.342 8.39782 12.5 8 12.5H2C1.60218 12.5 1.22064 12.342 0.93934 12.0607C0.658035 11.7794 0.5 11.3978 0.5 11V2ZM2 6.5C2 6.30109 2.07902 6.11032 2.21967 5.96967C2.36032 5.82902 2.55109 5.75 2.75 5.75H7.25C7.44891 5.75 7.63968 5.82902 7.78033 5.96967C7.92098 6.11032 8 6.30109 8 6.5C8 6.69891 7.92098 6.88968 7.78033 7.03033C7.63968 7.17098 7.44891 7.25 7.25 7.25H2.75C2.55109 7.25 2.36032 7.17098 2.21967 7.03033C2.07902 6.88968 2 6.69891 2 6.5ZM2.75 8.75C2.55109 8.75 2.36032 8.82902 2.21967 8.96967C2.07902 9.11032 2 9.30109 2 9.5C2 9.69891 2.07902 9.88968 2.21967 10.0303C2.36032 10.171 2.55109 10.25 2.75 10.25H7.25C7.44891 10.25 7.63968 10.171 7.78033 10.0303C7.92098 9.88968 8 9.69891 8 9.5C8 9.30109 7.92098 9.11032 7.78033 8.96967C7.63968 8.82902 7.44891 8.75 7.25 8.75H2.75Z" fill="#9299A5"/>
</svg>
