<svg width="18" height="19" viewBox="0 0 18 19" fill="none" xmlns="http://www.w3.org/2000/svg">
<path d="M17 9.5C17 11.6217 16.1571 13.6566 14.6569 15.1569C13.1566 16.6571 11.1217 17.5 9 17.5M17 9.5C17 7.37827 16.1571 5.34344 14.6569 3.84315C13.1566 2.34285 11.1217 1.5 9 1.5M17 9.5H1M9 17.5C6.87827 17.5 4.84344 16.6571 3.34315 15.1569C1.84285 13.6566 1 11.6217 1 9.5M9 17.5C10.4729 17.5 11.6667 13.9178 11.6667 9.5C11.6667 5.08222 10.4729 1.5 9 1.5M9 17.5C7.52711 17.5 6.33333 13.9178 6.33333 9.5C6.33333 5.08222 7.52711 1.5 9 1.5M1 9.5C1 7.37827 1.84285 5.34344 3.34315 3.84315C4.84344 2.34285 6.87827 1.5 9 1.5" stroke="#9269F7" stroke-width="2" stroke-linecap="round" stroke-linejoin="round"/>
</svg>
