<svg width="18" height="14" viewBox="0 0 18 14" fill="none" xmlns="http://www.w3.org/2000/svg">
<path fill-rule="evenodd" clip-rule="evenodd" d="M11.316 0.051045C11.4406 0.0925169 11.5559 0.15814 11.6552 0.244164C11.7544 0.330189 11.8358 0.43493 11.8946 0.552404C11.9534 0.669878 11.9884 0.797782 11.9978 0.92881C12.0071 1.05984 11.9905 1.19142 11.949 1.31604L7.949 13.316C7.86519 13.5677 7.68483 13.7758 7.4476 13.8945C7.21036 14.0132 6.93569 14.0329 6.684 13.949C6.43231 13.8652 6.22422 13.6849 6.10551 13.4476C5.9868 13.2104 5.96719 12.9357 6.051 12.684L10.051 0.684045C10.0925 0.559403 10.1581 0.444153 10.2441 0.344879C10.3301 0.245606 10.4349 0.164254 10.5524 0.10547C10.6698 0.046687 10.7977 0.0116245 10.9288 0.00228604C11.0598 -0.00705242 11.1914 0.00951616 11.316 0.051045ZM4.707 3.29305C4.89447 3.48057 4.99979 3.73488 4.99979 4.00004C4.99979 4.26521 4.89447 4.51952 4.707 4.70704L2.414 7.00004L4.707 9.29305C4.80251 9.38529 4.87869 9.49564 4.9311 9.61764C4.98351 9.73964 5.0111 9.87086 5.01225 10.0036C5.0134 10.1364 4.9881 10.2681 4.93782 10.391C4.88754 10.5139 4.81329 10.6255 4.7194 10.7194C4.6255 10.8133 4.51385 10.8876 4.39095 10.9379C4.26806 10.9881 4.13638 11.0134 4.0036 11.0123C3.87082 11.0111 3.7396 10.9836 3.6176 10.9311C3.49559 10.8787 3.38525 10.8026 3.293 10.707L0.293 7.70704C0.105529 7.51952 0.000213623 7.26521 0.000213623 7.00004C0.000213623 6.73488 0.105529 6.48057 0.293 6.29305L3.293 3.29305C3.48053 3.10557 3.73484 3.00026 4 3.00026C4.26516 3.00026 4.51947 3.10557 4.707 3.29305ZM13.293 3.29305C13.4805 3.10557 13.7348 3.00026 14 3.00026C14.2652 3.00026 14.5195 3.10557 14.707 3.29305L17.707 6.29305C17.8945 6.48057 17.9998 6.73488 17.9998 7.00004C17.9998 7.26521 17.8945 7.51952 17.707 7.70704L14.707 10.707C14.6148 10.8026 14.5044 10.8787 14.3824 10.9311C14.2604 10.9836 14.1292 11.0111 13.9964 11.0123C13.8636 11.0134 13.7319 10.9881 13.609 10.9379C13.4861 10.8876 13.3745 10.8133 13.2806 10.7194C13.1867 10.6255 13.1125 10.5139 13.0622 10.391C13.0119 10.2681 12.9866 10.1364 12.9877 10.0036C12.9889 9.87086 13.0165 9.73964 13.0689 9.61764C13.1213 9.49564 13.1975 9.38529 13.293 9.29305L15.586 7.00004L13.293 4.70704C13.1055 4.51952 13.0002 4.26521 13.0002 4.00004C13.0002 3.73488 13.1055 3.48057 13.293 3.29305Z" fill="#9299A5"/>
</svg>
