<svg width="21" height="20" viewBox="0 0 21 20" fill="none" xmlns="http://www.w3.org/2000/svg">
<path fill-rule="evenodd" clip-rule="evenodd" d="M12.566 3.05105C12.6906 3.09252 12.8059 3.15814 12.9052 3.24416C13.0044 3.33019 13.0858 3.43493 13.1446 3.5524C13.2034 3.66988 13.2384 3.79778 13.2478 3.92881C13.2571 4.05984 13.2405 4.19142 13.199 4.31604L9.199 16.316C9.11519 16.5677 8.93483 16.7758 8.6976 16.8945C8.46036 17.0132 8.18569 17.0329 7.934 16.949C7.68231 16.8652 7.47422 16.6849 7.35551 16.4476C7.2368 16.2104 7.21719 15.9357 7.301 15.684L11.301 3.68404C11.3425 3.5594 11.4081 3.44415 11.4941 3.34488C11.5801 3.24561 11.6849 3.16425 11.8024 3.10547C11.9198 3.04669 12.0477 3.01162 12.1788 3.00229C12.3098 2.99295 12.4414 3.00952 12.566 3.05105ZM5.957 6.29305C6.14447 6.48057 6.24979 6.73488 6.24979 7.00004C6.24979 7.26521 6.14447 7.51952 5.957 7.70704L3.664 10L5.957 12.293C6.05251 12.3853 6.12869 12.4956 6.1811 12.6176C6.23351 12.7396 6.2611 12.8709 6.26225 13.0036C6.2634 13.1364 6.2381 13.2681 6.18782 13.391C6.13754 13.5139 6.06329 13.6255 5.9694 13.7194C5.8755 13.8133 5.76385 13.8876 5.64095 13.9379C5.51806 13.9881 5.38638 14.0134 5.2536 14.0123C5.12082 14.0111 4.9896 13.9836 4.8676 13.9311C4.74559 13.8787 4.63525 13.8026 4.543 13.707L1.543 10.707C1.35553 10.5195 1.25021 10.2652 1.25021 10C1.25021 9.73488 1.35553 9.48057 1.543 9.29305L4.543 6.29305C4.73053 6.10557 4.98484 6.00026 5.25 6.00026C5.51516 6.00026 5.76947 6.10557 5.957 6.29305ZM14.543 6.29305C14.7305 6.10557 14.9848 6.00026 15.25 6.00026C15.5152 6.00026 15.7695 6.10557 15.957 6.29305L18.957 9.29305C19.1445 9.48057 19.2498 9.73488 19.2498 10C19.2498 10.2652 19.1445 10.5195 18.957 10.707L15.957 13.707C15.8648 13.8026 15.7544 13.8787 15.6324 13.9311C15.5104 13.9836 15.3792 14.0111 15.2464 14.0123C15.1136 14.0134 14.9819 13.9881 14.859 13.9379C14.7361 13.8876 14.6245 13.8133 14.5306 13.7194C14.4367 13.6255 14.3625 13.5139 14.3122 13.391C14.2619 13.2681 14.2366 13.1364 14.2377 13.0036C14.2389 12.8709 14.2665 12.7396 14.3189 12.6176C14.3713 12.4956 14.4475 12.3853 14.543 12.293L16.836 10L14.543 7.70704C14.3555 7.51952 14.2502 7.26521 14.2502 7.00004C14.2502 6.73488 14.3555 6.48057 14.543 6.29305Z" fill="black"/>
</svg>
