<svg width="14" height="16" viewBox="0 0 14 16" fill="none" xmlns="http://www.w3.org/2000/svg">
<path d="M4.66665 8H9.33332H4.66665ZM4.66665 11.1111H9.33332H4.66665ZM10.8889 15H3.1111C2.69854 15 2.30288 14.8361 2.01115 14.5444C1.71943 14.2527 1.55554 13.857 1.55554 13.4444V2.55556C1.55554 2.143 1.71943 1.74733 2.01115 1.45561C2.30288 1.16389 2.69854 1 3.1111 1H7.45576C7.66203 1.00004 7.85983 1.08202 8.00565 1.22789L12.2165 5.43878C12.3624 5.58461 12.4444 5.7824 12.4444 5.98867V13.4444C12.4444 13.857 12.2805 14.2527 11.9888 14.5444C11.6971 14.8361 11.3014 15 10.8889 15Z" stroke="#9299A5" stroke-width="1.75" stroke-linecap="round" stroke-linejoin="round"/>
</svg>
