<svg width="21" height="20" viewBox="0 0 21 20" fill="none" xmlns="http://www.w3.org/2000/svg">
<path d="M7.91667 10H12.5833H7.91667ZM7.91667 13.1111H12.5833H7.91667ZM14.1389 17H6.36111C5.94855 17 5.55289 16.8361 5.26117 16.5444C4.96945 16.2527 4.80556 15.857 4.80556 15.4444V4.55556C4.80556 4.143 4.96945 3.74733 5.26117 3.45561C5.55289 3.16389 5.94855 3 6.36111 3H10.7058C10.912 3.00004 11.1098 3.08202 11.2557 3.22789L15.4666 7.43878C15.6124 7.58461 15.6944 7.7824 15.6944 7.98867V15.4444C15.6944 15.857 15.5306 16.2527 15.2388 16.5444C14.9471 16.8361 14.5514 17 14.1389 17Z" stroke="black" stroke-width="1.75" stroke-linecap="round" stroke-linejoin="round"/>
</svg>
