<svg width="16" height="16" viewBox="0 0 16 16" fill="none" xmlns="http://www.w3.org/2000/svg">
<path d="M8 1.875V1.88375V1.875ZM8 8V8.00875V8ZM8 14.125V14.1337V14.125ZM8 2.75C7.76794 2.75 7.54538 2.65781 7.38128 2.49372C7.21719 2.32962 7.125 2.10706 7.125 1.875C7.125 1.64294 7.21719 1.42038 7.38128 1.25628C7.54538 1.09219 7.76794 1 8 1C8.23206 1 8.45462 1.09219 8.61872 1.25628C8.78281 1.42038 8.875 1.64294 8.875 1.875C8.875 2.10706 8.78281 2.32962 8.61872 2.49372C8.45462 2.65781 8.23206 2.75 8 2.75ZM8 8.875C7.76794 8.875 7.54538 8.78281 7.38128 8.61872C7.21719 8.45462 7.125 8.23206 7.125 8C7.125 7.76794 7.21719 7.54538 7.38128 7.38128C7.54538 7.21719 7.76794 7.125 8 7.125C8.23206 7.125 8.45462 7.21719 8.61872 7.38128C8.78281 7.54538 8.875 7.76794 8.875 8C8.875 8.23206 8.78281 8.45462 8.61872 8.61872C8.45462 8.78281 8.23206 8.875 8 8.875ZM8 15C7.76794 15 7.54538 14.9078 7.38128 14.7437C7.21719 14.5796 7.125 14.3571 7.125 14.125C7.125 13.8929 7.21719 13.6704 7.38128 13.5063C7.54538 13.3422 7.76794 13.25 8 13.25C8.23206 13.25 8.45462 13.3422 8.61872 13.5063C8.78281 13.6704 8.875 13.8929 8.875 14.125C8.875 14.3571 8.78281 14.5796 8.61872 14.7437C8.45462 14.9078 8.23206 15 8 15Z" fill="#9299A5" stroke="#9299A5" stroke-width="2" stroke-linecap="round" stroke-linejoin="round"/>
</svg>
