<svg width="19" height="18" viewBox="0 0 19 18" fill="none" xmlns="http://www.w3.org/2000/svg">
<path d="M11.5 9C11.5 9.59674 11.2629 10.169 10.841 10.591C10.419 11.0129 9.84674 11.25 9.25 11.25C8.65326 11.25 8.08097 11.0129 7.65901 10.591C7.23705 10.169 7 9.59674 7 9C7 8.40326 7.23705 7.83097 7.65901 7.40901C8.08097 6.98705 8.65326 6.75 9.25 6.75C9.84674 6.75 10.419 6.98705 10.841 7.40901C11.2629 7.83097 11.5 8.40326 11.5 9V9Z" stroke="black" stroke-width="1.5" stroke-linecap="round" stroke-linejoin="round"/>
<path d="M2.09351 9C3.04901 5.95725 5.89226 3.75 9.25001 3.75C12.6085 3.75 15.451 5.95725 16.4065 9C15.451 12.0428 12.6085 14.25 9.25001 14.25C5.89226 14.25 3.04901 12.0428 2.09351 9V9Z" stroke="black" stroke-width="1.5" stroke-linecap="round" stroke-linejoin="round"/>
</svg>
