<svg width="13" height="12" viewBox="0 0 13 12" fill="none" xmlns="http://www.w3.org/2000/svg">
<path d="M3.12644 4.8408C2.99879 5.21392 2.93391 5.60564 2.93444 6C2.93444 6.4404 3.01364 6.8622 3.16004 7.2516C3.3425 7.7383 3.62911 8.17925 3.99982 8.5436C4.37052 8.90795 4.81636 9.1869 5.30615 9.36092C5.79593 9.53495 6.31782 9.59985 6.83531 9.55108C7.3528 9.50231 7.85338 9.34106 8.30203 9.07859H8.30263C9.00945 8.66421 9.55254 8.01966 9.84103 7.2528H6.63283V4.8792H12.3958C12.5449 5.66429 12.5359 6.47122 12.3694 7.2528C12.081 8.60393 11.3349 9.81408 10.2574 10.6788C9.19315 11.5358 7.86727 12.0021 6.50083 12C5.47062 12.0006 4.45761 11.7358 3.55942 11.2312C2.66122 10.7267 1.90811 9.99927 1.37264 9.11914C0.837176 8.23901 0.537398 7.23581 0.502192 6.2062C0.466986 5.17658 0.697539 4.15525 1.17164 3.2406C1.67742 2.26375 2.44207 1.44478 3.38196 0.873241C4.32186 0.301706 5.40081 -0.000385717 6.50083 3.69614e-07C7.95643 3.69614e-07 9.29143 0.5184 10.3306 1.3812L8.38663 2.9724C7.93124 2.68898 7.41782 2.51186 6.88455 2.4542C6.35128 2.39654 5.81186 2.45983 5.30642 2.63936C4.80097 2.8189 4.3425 3.11005 3.96508 3.49118C3.58766 3.87232 3.30101 4.33362 3.12644 4.8408Z" fill="black"/>
</svg>
