<svg width="12" height="12" viewBox="0 0 12 12" fill="none" xmlns="http://www.w3.org/2000/svg">
<path fill-rule="evenodd" clip-rule="evenodd" d="M11.9998 6C11.9998 7.5913 11.3676 9.11742 10.2424 10.2426C9.11718 11.3679 7.59105 12 5.99976 12C4.40846 12 2.88233 11.3679 1.75712 10.2426C0.631897 9.11742 -0.000244141 7.5913 -0.000244141 6C-0.000244141 4.4087 0.631897 2.88258 1.75712 1.75736C2.88233 0.632141 4.40846 0 5.99976 0C7.59105 0 9.11718 0.632141 10.2424 1.75736C11.3676 2.88258 11.9998 4.4087 11.9998 6ZM6.74976 3C6.74976 3.19891 6.67074 3.38968 6.53009 3.53033C6.38943 3.67098 6.19867 3.75 5.99976 3.75C5.80084 3.75 5.61008 3.67098 5.46943 3.53033C5.32877 3.38968 5.24976 3.19891 5.24976 3C5.24976 2.80109 5.32877 2.61032 5.46943 2.46967C5.61008 2.32902 5.80084 2.25 5.99976 2.25C6.19867 2.25 6.38943 2.32902 6.53009 2.46967C6.67074 2.61032 6.74976 2.80109 6.74976 3ZM5.24976 5.25C5.05084 5.25 4.86008 5.32902 4.71943 5.46967C4.57877 5.61032 4.49976 5.80109 4.49976 6C4.49976 6.19891 4.57877 6.38968 4.71943 6.53033C4.86008 6.67098 5.05084 6.75 5.24976 6.75V9C5.24976 9.19891 5.32877 9.38968 5.46943 9.53033C5.61008 9.67098 5.80084 9.75 5.99976 9.75H6.74976C6.94867 9.75 7.13943 9.67098 7.28009 9.53033C7.42074 9.38968 7.49976 9.19891 7.49976 9C7.49976 8.80109 7.42074 8.61032 7.28009 8.46967C7.13943 8.32902 6.94867 8.25 6.74976 8.25V6C6.74976 5.80109 6.67074 5.61032 6.53009 5.46967C6.38943 5.32902 6.19867 5.25 5.99976 5.25H5.24976Z" fill="#9299A5"/>
</svg>
