<svg width="10" height="14" viewBox="0 0 10 14" fill="none" xmlns="http://www.w3.org/2000/svg">
<path d="M5 11H5.00667H5ZM2.33333 13H7.66667C8.02029 13 8.35943 12.8595 8.60948 12.6095C8.85952 12.3594 9 12.0203 9 11.6667V2.33333C9 1.97971 8.85952 1.64057 8.60948 1.39052C8.35943 1.14048 8.02029 1 7.66667 1L2.33333 1C1.97971 1 1.64057 1.14048 1.39052 1.39052C1.14048 1.64057 1 1.97971 1 2.33333L1 11.6667C1 12.0203 1.14048 12.3594 1.39052 12.6095C1.64057 12.8595 1.97971 13 2.33333 13Z" stroke="black" stroke-width="1.25" stroke-linecap="round" stroke-linejoin="round"/>
</svg>
