<svg width="14" height="14" viewBox="0 0 14 14" fill="none" xmlns="http://www.w3.org/2000/svg">
<path d="M5.5 10.3333L5 12.3333L4.33333 13H9.66667L9 12.3333L8.5 10.3333H5.5ZM1 7.66667L13 7.66667L1 7.66667ZM2.33333 10.3333H11.6667C12.0203 10.3333 12.3594 10.1929 12.6095 9.94281C12.8595 9.69276 13 9.35362 13 9V2.33333C13 1.97971 12.8595 1.64057 12.6095 1.39052C12.3594 1.14048 12.0203 1 11.6667 1L2.33333 1C1.97971 1 1.64057 1.14048 1.39052 1.39052C1.14048 1.64057 1 1.97971 1 2.33333L1 9C1 9.35362 1.14048 9.69276 1.39052 9.94281C1.64057 10.1929 1.97971 10.3333 2.33333 10.3333Z" stroke="black" stroke-width="1.25" stroke-linecap="round" stroke-linejoin="round"/>
</svg>
