<svg width="21" height="20" viewBox="0 0 21 20" fill="none" xmlns="http://www.w3.org/2000/svg">
<path fill-rule="evenodd" clip-rule="evenodd" d="M11.74 3.17024C11.36 1.61024 9.14 1.61024 8.76 3.17024C8.70327 3.40466 8.59199 3.62237 8.43522 3.80566C8.27846 3.98894 8.08063 4.13263 7.85785 4.22501C7.63506 4.3174 7.39361 4.35589 7.15314 4.33733C6.91267 4.31878 6.67998 4.24371 6.474 4.11824C5.102 3.28224 3.532 4.85224 4.368 6.22424C4.908 7.11024 4.429 8.26624 3.421 8.51124C1.86 8.89024 1.86 11.1112 3.421 11.4892C3.65548 11.546 3.87323 11.6574 4.05651 11.8143C4.2398 11.9712 4.38344 12.1692 4.47574 12.3921C4.56804 12.615 4.60639 12.8565 4.58767 13.0971C4.56895 13.3376 4.49368 13.5703 4.368 13.7762C3.532 15.1482 5.102 16.7182 6.474 15.8822C6.67994 15.7566 6.91265 15.6813 7.15319 15.6626C7.39372 15.6439 7.63527 15.6822 7.85818 15.7745C8.08109 15.8668 8.27904 16.0104 8.43593 16.1937C8.59282 16.377 8.7042 16.5948 8.761 16.8292C9.14 18.3902 11.361 18.3902 11.739 16.8292C11.796 16.5949 11.9075 16.3773 12.0644 16.1941C12.2213 16.011 12.4193 15.8674 12.6421 15.7751C12.8649 15.6829 13.1064 15.6445 13.3469 15.6631C13.5873 15.6817 13.82 15.7568 14.026 15.8822C15.398 16.7182 16.968 15.1482 16.132 13.7762C16.0065 13.5703 15.9315 13.3376 15.9128 13.0971C15.8942 12.8566 15.9326 12.6152 16.0249 12.3923C16.1172 12.1695 16.2607 11.9716 16.4439 11.8147C16.627 11.6577 16.8446 11.5462 17.079 11.4892C18.64 11.1102 18.64 8.88924 17.079 8.51124C16.8445 8.45444 16.6268 8.34306 16.4435 8.18617C16.2602 8.02929 16.1166 7.83133 16.0243 7.60842C15.932 7.38552 15.8936 7.14396 15.9123 6.90343C15.9311 6.6629 16.0063 6.43018 16.132 6.22424C16.968 4.85224 15.398 3.28224 14.026 4.11824C13.8201 4.24393 13.5874 4.31919 13.3468 4.33791C13.1063 4.35664 12.8647 4.31828 12.6418 4.22598C12.4189 4.13368 12.221 3.99004 12.0641 3.80676C11.9072 3.62347 11.7958 3.40572 11.739 3.17124L11.74 3.17024ZM10.25 13.0002C11.0457 13.0002 11.8087 12.6842 12.3713 12.1216C12.9339 11.559 13.25 10.7959 13.25 10.0002C13.25 9.20459 12.9339 8.44153 12.3713 7.87892C11.8087 7.31631 11.0457 7.00024 10.25 7.00024C9.45435 7.00024 8.69129 7.31631 8.12868 7.87892C7.56607 8.44153 7.25 9.20459 7.25 10.0002C7.25 10.7959 7.56607 11.559 8.12868 12.1216C8.69129 12.6842 9.45435 13.0002 10.25 13.0002V13.0002Z" fill="black"/>
</svg>
