<svg width="21" height="20" viewBox="0 0 21 20" fill="none" xmlns="http://www.w3.org/2000/svg">
<path d="M12.5 10C12.5 10.5967 12.2629 11.169 11.841 11.591C11.419 12.0129 10.8467 12.25 10.25 12.25C9.65326 12.25 9.08097 12.0129 8.65901 11.591C8.23705 11.169 8 10.5967 8 10C8 9.40326 8.23705 8.83097 8.65901 8.40901C9.08097 7.98705 9.65326 7.75 10.25 7.75C10.8467 7.75 11.419 7.98705 11.841 8.40901C12.2629 8.83097 12.5 9.40326 12.5 10V10Z" stroke="black" stroke-width="1.5" stroke-linecap="round" stroke-linejoin="round"/>
<path d="M3.09351 10C4.04901 6.95725 6.89226 4.75 10.25 4.75C13.6085 4.75 16.451 6.95725 17.4065 10C16.451 13.0428 13.6085 15.25 10.25 15.25C6.89226 15.25 4.04901 13.0428 3.09351 10V10Z" stroke="black" stroke-width="1.5" stroke-linecap="round" stroke-linejoin="round"/>
</svg>
